<svg xmlns="http://www.w3.org/2000/svg" viewBox="0 0 1200 800" role="img" aria-label="SAAJ Partners and Consult — about placeholder">
  <defs>
    <linearGradient id="bg" x1="0" y1="0" x2="1" y2="1">
      <stop offset="0" stop-color="#0f2452"/>
      <stop offset="0.55" stop-color="#164dbb"/>
      <stop offset="1" stop-color="#1d63e0"/>
    </linearGradient>
    <pattern id="grid" width="56" height="56" patternUnits="userSpaceOnUse">
      <path d="M56 0H0V56" fill="none" stroke="#ffffff" stroke-opacity="0.07" stroke-width="1"/>
    </pattern>
    <linearGradient id="w" x1="0" y1="0" x2="0" y2="1">
      <stop offset="0" stop-color="#ffffff" stop-opacity="0.85"/>
      <stop offset="1" stop-color="#ffffff" stop-opacity="0.3"/>
    </linearGradient>
  </defs>
  <rect width="1200" height="800" fill="url(#bg)"/>
  <rect width="1200" height="800" fill="url(#grid)"/>
  <!-- team / building meeting placeholder -->
  <g fill="#ffffff" opacity="0.12">
    <circle cx="300" cy="420" r="170"/>
    <rect x="520" y="300" width="180" height="60" rx="10"/>
    <rect x="520" y="390" width="140" height="60" rx="10"/>
    <rect x="520" y="480" width="160" height="60" rx="10"/>
  </g>
  <g stroke="url(#w)" stroke-width="4" fill="none" stroke-linecap="round">
    <line x1="160" y1="520" x2="440" y2="520"/>
    <line x1="300" y1="590" x2="300" y2="700"/>
    <line x1="720" y1="330" x2="980" y2="330"/>
    <line x1="740" y1="420" x2="940" y2="420"/>
    <line x1="700" y1="510" x2="960" y2="510"/>
  </g>
  <g>
    <rect x="60" y="600" width="420" height="120" rx="12" fill="#0b1f3a" opacity="0.85"/>
    <rect x="60" y="600" width="420" height="120" rx="12" fill="none" stroke="#ffffff" stroke-opacity="0.25"/>
    <text x="80" y="652" font-family="sans-serif" font-size="30" font-weight="700" fill="#ffffff">About Visual</text>
    <text x="80" y="692" font-family="sans-serif" font-size="18" fill="#ffffff" opacity="0.65">Replace via the admin dashboard</text>
  </g>
</svg>